<svg xmlns="http://www.w3.org/2000/svg" xmlns:xlink="http://www.w3.org/1999/xlink" width="1080" zoomAndPan="magnify" viewBox="0 0 810 809.999993" height="1080" preserveAspectRatio="xMidYMid meet" version="1.2"><g id="b0bde5c65e"><path style=" stroke:none;fill-rule:evenodd;fill:#ffffff;fill-opacity:1;" d="M 81.75 167.429688 C 81.75 169.667969 82.308594 171.601562 83.4375 173.257812 C 84.457031 174.757812 93.628906 181.691406 106.601562 190.773438 L 128.078125 205.8125 L 129.335938 212.214844 C 130.785156 219.601562 132.40625 223.613281 135.347656 227.089844 C 138.195312 230.460938 140.746094 231.625 145.949219 231.929688 L 150.375 232.191406 L 150 236.65625 C 149.792969 239.113281 149.664062 244.753906 149.707031 249.1875 C 149.753906 253.621094 149.648438 257.25 149.46875 257.25 C 149.289062 257.25 139.253906 250.332031 127.171875 241.875 C 115.085938 233.417969 104.984375 226.5 104.722656 226.5 C 104.464844 226.5 104.25 237.480469 104.25 250.90625 C 104.25 273.421875 104.359375 275.527344 105.679688 278.109375 C 106.828125 280.363281 111.0625 283.667969 127.359375 295.042969 L 147.613281 309.171875 L 148.542969 314.148438 C 151.078125 327.742188 155.058594 332.6875 164.25 333.679688 C 168.199219 334.105469 168.363281 334.210938 168.140625 336.148438 C 167.933594 337.914062 168.386719 338.421875 171.675781 340.085938 C 176.394531 342.476562 176.71875 342.46875 177.351562 339.9375 C 178.121094 336.847656 180.078125 333 180.875 333 C 182.035156 333 190.558594 339.035156 190.992188 340.160156 C 191.210938 340.730469 190.171875 342.6875 188.683594 344.503906 L 185.972656 347.8125 L 187.953125 349.109375 C 189.652344 350.222656 190.195312 350.265625 191.78125 349.417969 C 192.796875 348.875 194.304688 347.472656 195.136719 346.308594 L 196.648438 344.1875 L 199.949219 348.90625 C 204.035156 354.742188 205.5 357.824219 205.5 360.585938 C 205.5 361.941406 206.261719 363.449219 207.582031 364.714844 C 209.554688 366.605469 209.710938 366.636719 210.527344 365.324219 C 211.195312 364.261719 211.132812 363.0625 210.269531 360.113281 C 209.652344 358.007812 209.253906 355.417969 209.386719 354.355469 L 209.625 352.429688 L 214.363281 355.886719 C 218.550781 358.9375 219.054688 359.574219 218.707031 361.359375 C 218.488281 362.464844 218.085938 365.398438 217.8125 367.875 C 217.539062 370.351562 216.996094 372.773438 216.609375 373.257812 C 216.132812 373.859375 217.085938 375.785156 219.578125 379.257812 C 221.597656 382.074219 224.5625 386.566406 226.164062 389.242188 L 229.078125 394.113281 L 230.066406 390.367188 C 232.78125 380.105469 234.441406 376.175781 236.242188 375.753906 C 238.515625 375.214844 239.140625 373.5 237.0625 373.5 C 235.527344 373.5 235.035156 372.714844 235.976562 371.769531 C 236.496094 371.253906 248.015625 378.984375 249.5625 380.882812 C 250.121094 381.570312 250.5 384.238281 250.5 387.46875 C 250.5 390.457031 251.007812 395.3125 251.625 398.253906 C 252.707031 403.390625 253.367188 415.132812 252.617188 415.882812 C 252.421875 416.078125 248.148438 413.390625 243.128906 409.902344 C 238.109375 406.417969 234 403.867188 234 404.238281 C 234 404.609375 234.820312 407.207031 235.828125 410.015625 C 240.542969 423.214844 242.53125 435.15625 242.539062 450.375 C 242.546875 467.554688 240.132812 480.628906 234.234375 495.335938 L 231.511719 502.125 L 232.449219 512.625 C 232.960938 518.398438 233.816406 528.792969 234.351562 535.722656 C 234.882812 542.648438 235.511719 548.511719 235.75 548.75 C 235.988281 548.988281 236.746094 548.972656 237.429688 548.707031 C 238.476562 548.304688 238.597656 547.496094 238.203125 543.554688 C 237.65625 538.09375 237.515625 512.8125 238.015625 509.855469 C 238.203125 508.746094 238.585938 507.464844 238.867188 507.011719 C 239.148438 506.558594 239.496094 503.417969 239.640625 500.03125 C 239.832031 495.492188 240.59375 491.804688 242.542969 486 C 243.996094 481.667969 245.902344 475.679688 246.78125 472.6875 C 248.191406 467.878906 248.582031 467.25 250.1875 467.25 C 251.183594 467.25 252 466.914062 252 466.5 C 252 466.085938 251.324219 465.75 250.5 465.75 C 249.027344 465.75 248.546875 464.953125 249.464844 464.035156 C 249.71875 463.78125 252.367188 465.21875 255.351562 467.234375 L 260.777344 470.894531 L 261.296875 477.761719 C 261.582031 481.542969 262.179688 486.375 262.628906 488.503906 C 263.429688 492.304688 263.597656 510.84375 262.878906 516 C 262.21875 520.738281 261.863281 537.34375 262.394531 538.714844 C 263.25 540.925781 268.828125 535.632812 270.34375 531.179688 C 271.003906 529.222656 272.042969 526.96875 272.648438 526.167969 C 273.726562 524.746094 273.75 524.75 273.75 526.355469 C 273.75 527.261719 273.414062 528 273 528 C 272.082031 528 271.988281 536.75 272.902344 537.3125 C 273.261719 537.535156 273.320312 539 273.035156 540.5625 C 272.226562 544.972656 272.921875 565.226562 274.09375 571.5 C 275.175781 577.28125 275.109375 589.105469 273.917969 602.625 C 273.289062 609.769531 273.546875 618.769531 274.378906 618.71875 C 274.652344 618.703125 276.125 617.582031 277.65625 616.230469 C 282.71875 611.753906 284.695312 600.535156 288.3125 555.75 C 288.898438 548.53125 289.378906 542.117188 289.382812 541.5 C 289.386719 540.882812 289.765625 535.144531 290.226562 528.75 C 290.691406 522.355469 291.246094 511.898438 291.460938 505.507812 C 291.679688 499.121094 291.992188 493.757812 292.15625 493.59375 C 292.320312 493.429688 295.410156 495.328125 299.023438 497.808594 C 306.558594 502.976562 307.171875 504.246094 306.476562 513.226562 C 306.140625 517.546875 306.296875 518.546875 307.484375 519.734375 C 310.976562 523.226562 314.292969 551.332031 314.699219 580.875 C 314.84375 591.1875 314.96875 599.878906 314.980469 600.1875 C 315.019531 601.308594 317.214844 600.714844 317.925781 599.390625 C 318.324219 598.644531 318.863281 594.171875 319.121094 589.453125 C 319.667969 579.507812 321.414062 565.75 323.019531 558.75 C 323.9375 554.746094 324.039062 550.429688 323.597656 534.5625 C 323.300781 523.941406 323.28125 515.25 323.554688 515.25 C 323.824219 515.25 326.6875 517.097656 329.910156 519.359375 L 335.773438 523.46875 L 336.207031 538.671875 C 336.773438 558.5625 339.179688 571.765625 343.992188 581.34375 C 344.960938 583.269531 345.75 585.035156 345.75 585.269531 C 345.75 585.503906 347.570312 589.503906 349.792969 594.160156 L 359.132812 613.730469 C 362.046875 619.839844 366.648438 628.46875 369.351562 632.90625 C 372.058594 637.34375 375.476562 643.992188 376.953125 647.675781 C 378.429688 651.359375 381.789062 659.628906 384.421875 666.054688 C 389.085938 677.4375 391.464844 685.304688 391.488281 689.394531 C 391.503906 692.152344 392.628906 692.621094 394.574219 690.675781 C 396.148438 689.101562 396.183594 688.683594 395.699219 677.710938 C 394.574219 652.300781 394.039062 648.613281 389.894531 637.882812 C 387.820312 632.515625 385.296875 625.59375 384.289062 622.5 C 383.277344 619.40625 381.609375 615.355469 380.574219 613.5 C 370.878906 596.078125 356.972656 561.289062 352.992188 544.5 C 350.382812 533.5 350.429688 533.324219 354.871094 536.984375 C 357.019531 538.757812 359.714844 543.519531 367.839844 559.898438 C 373.480469 571.273438 378.890625 582.667969 379.863281 585.226562 C 380.839844 587.78125 382.636719 592.070312 383.863281 594.75 C 387.023438 601.664062 389.097656 608.328125 389.675781 613.425781 C 390.257812 618.570312 390.8125 619.714844 392.429688 619.097656 C 394.722656 618.214844 395.492188 614.570312 394.96875 607.085938 C 394.691406 603.1875 394.730469 600.015625 395.046875 600.035156 C 395.363281 600.054688 397.910156 602.167969 400.703125 604.734375 L 405.78125 609.402344 L 410.027344 605.449219 C 412.363281 603.277344 414.539062 601.5 414.863281 601.5 C 415.1875 601.5 415.246094 604.179688 414.992188 607.457031 C 414.515625 613.660156 415.378906 617.503906 417.433594 618.292969 C 418.65625 618.761719 419.996094 616.59375 420.011719 614.113281 C 420.039062 610.605469 422.871094 601.671875 426.386719 594 C 430.035156 586.039062 430.652344 584.972656 436.210938 577.03125 C 440 571.617188 443.355469 564.980469 448.480469 552.75 C 453.816406 540.015625 455.316406 537.667969 460.140625 534.464844 C 462.398438 532.960938 464.246094 531.992188 464.242188 532.304688 C 464.238281 532.617188 463.082031 537.09375 461.675781 542.25 C 458.621094 553.460938 453.246094 568.929688 450.605469 574.125 C 449.558594 576.1875 447.164062 581.417969 445.28125 585.75 C 440.800781 596.078125 436.375 604.976562 433.277344 609.898438 C 431.898438 612.085938 430.003906 616.070312 429.0625 618.75 C 428.121094 621.429688 425.875 626.886719 424.066406 630.871094 C 418.011719 644.230469 417.304688 647.296875 415.546875 667.71875 C 414.214844 683.21875 414.109375 686.648438 414.917969 688.335938 C 416.84375 692.351562 418.085938 691.285156 419.363281 684.523438 C 420.1875 680.164062 422.097656 674.828125 425.617188 667.058594 C 428.40625 660.90625 431.664062 653.320312 432.859375 650.195312 C 434.050781 647.070312 438.25 639.308594 442.1875 632.945312 C 451.652344 617.648438 472 576.792969 473.910156 569.25 C 476.433594 559.285156 477.65625 549.683594 478.179688 535.730469 C 478.757812 520.191406 477.972656 521.972656 487.058594 515.589844 L 492.238281 511.949219 L 491.734375 520.535156 C 490.101562 548.390625 489.796875 555.316406 490.140625 556.765625 C 491.488281 562.445312 492.890625 574.894531 493.195312 583.875 C 493.640625 597.066406 494.054688 600.402344 495.378906 601.503906 C 497.519531 603.28125 498 601.460938 498.007812 591.519531 C 498.023438 570.601562 500.878906 543.867188 505.070312 525.375 C 506.472656 519.1875 508.21875 510.84375 508.945312 506.835938 L 510.265625 499.546875 L 516.636719 495.027344 C 520.140625 492.542969 523.082031 490.589844 523.167969 490.691406 C 523.257812 490.792969 523.53125 500.378906 523.777344 511.996094 C 524.296875 536.359375 525.289062 558.914062 526.878906 582.375 C 527.863281 596.925781 528.582031 602.128906 531.089844 612.75 C 531.824219 615.871094 536.867188 621.429688 537.964844 620.332031 C 538.40625 619.894531 538.59375 614.699219 538.433594 607.363281 C 537.988281 586.671875 538.296875 577.460938 539.613281 571.875 C 540.425781 568.425781 540.949219 562.078125 541.148438 553.359375 C 541.3125 546.0625 541.65625 539.269531 541.910156 538.257812 L 542.371094 536.421875 L 545.429688 539.335938 C 550.316406 543.984375 550.054688 544.835938 549.730469 525.375 C 549.34375 501.953125 549.363281 495.378906 549.824219 494.625 C 550.710938 493.179688 551.988281 484.804688 552.476562 477.257812 L 552.964844 469.640625 L 565.050781 461.296875 L 566.40625 465.585938 C 567.152344 467.945312 568.949219 474.261719 570.402344 479.625 C 571.855469 484.988281 573.570312 491.0625 574.21875 493.125 C 576.679688 500.996094 577.628906 521.746094 576.433594 541.6875 C 575.835938 551.691406 575.890625 552.75 576.996094 552.75 C 578.5625 552.75 578.765625 551.765625 580.101562 537.75 C 580.710938 531.355469 581.714844 522.414062 582.339844 517.875 C 583.933594 506.257812 583.851562 505.335938 580.535156 497.25 C 573.957031 481.203125 571.492188 468.453125 571.511719 450.566406 C 571.527344 439.019531 572.566406 429.699219 574.832031 420.75 C 576.382812 414.636719 579.996094 404.429688 582.003906 400.492188 C 582.84375 398.847656 583.332031 397.5 583.09375 397.5 C 582.851562 397.5 577.867188 400.867188 572.015625 404.980469 C 566.164062 409.097656 561.121094 412.472656 560.8125 412.480469 C 559.820312 412.511719 560.207031 407.546875 561.699219 401.121094 C 562.496094 397.6875 563.375 391.285156 563.65625 386.902344 L 564.167969 378.925781 L 571.296875 373.925781 C 575.21875 371.179688 578.496094 369.027344 578.582031 369.152344 C 579.613281 370.652344 584.28125 386.824219 585.140625 391.871094 C 585.335938 393.027344 585.878906 392.523438 587.542969 389.621094 C 588.726562 387.558594 591.742188 383.027344 594.246094 379.542969 C 597.5625 374.933594 598.753906 372.640625 598.636719 371.105469 C 598.46875 368.917969 599.136719 368.4375 600.480469 369.78125 C 601.023438 370.324219 601.546875 370.226562 602.183594 369.457031 C 602.925781 368.5625 602.804688 368.054688 601.550781 366.800781 C 600.699219 365.949219 600 364.734375 600 364.101562 C 600 363.46875 599.492188 362.757812 598.875 362.523438 C 597.664062 362.054688 597.335938 359.59375 598.398438 358.9375 C 598.757812 358.71875 598.894531 357.722656 598.703125 356.726562 C 598.421875 355.253906 598.984375 354.488281 601.75 352.585938 C 603.617188 351.300781 605.257812 350.25 605.398438 350.25 C 605.535156 350.25 605.417969 353.707031 605.132812 357.933594 C 604.847656 362.160156 604.761719 365.761719 604.9375 365.9375 C 605.113281 366.113281 606.054688 365.507812 607.03125 364.589844 C 608.535156 363.175781 608.933594 361.71875 609.683594 354.898438 C 610.523438 347.253906 610.675781 346.78125 612.96875 344.855469 C 614.292969 343.742188 616.605469 342.140625 618.109375 341.289062 L 620.84375 339.742188 L 620.253906 342.558594 C 619.074219 348.199219 618.796875 354.058594 619.742188 353.496094 C 622.972656 351.578125 628.589844 346.984375 629.277344 345.695312 C 629.863281 344.601562 630.367188 344.371094 631.011719 344.90625 C 631.644531 345.429688 632.652344 345.195312 634.320312 344.140625 C 636.652344 342.664062 636.691406 342.558594 635.609375 340.472656 C 634.203125 337.75 634.210938 335.617188 635.636719 331.445312 C 636.878906 327.808594 641.429688 323.878906 642.804688 325.253906 C 643.214844 325.664062 644.824219 328.542969 646.390625 331.652344 L 649.230469 337.308594 L 652.84375 335.9375 C 654.832031 335.183594 660.316406 333.65625 665.027344 332.542969 L 673.597656 330.515625 L 675.722656 326.300781 C 678.875 320.058594 679.714844 316.332031 680.191406 306.441406 L 680.625 297.511719 L 692.242188 289.40625 C 698.632812 284.949219 704.285156 280.71875 704.804688 280.007812 C 705.523438 279.023438 705.75 272.289062 705.75 251.878906 C 705.75 226.648438 705.671875 225.074219 704.4375 225.511719 C 703.714844 225.769531 697.640625 229.792969 690.9375 234.457031 L 678.75 242.933594 L 678.75 240.433594 C 678.75 239.0625 678.550781 236.933594 678.304688 235.707031 L 677.859375 233.480469 L 682.425781 233 C 684.9375 232.738281 688.152344 232.039062 689.574219 231.445312 C 695.882812 228.808594 700.417969 217.480469 701.160156 202.5 L 701.625 193.125 L 713.589844 184.773438 C 728.246094 174.546875 729 173.742188 729 168.332031 C 729 166.085938 728.789062 164.25 728.527344 164.25 C 727.742188 164.25 589.21875 247.628906 587.859375 248.921875 C 587.160156 249.582031 576.984375 266.082031 565.246094 285.589844 L 543.898438 321.050781 L 543.847656 328.554688 C 543.816406 332.679688 543.527344 336.53125 543.203125 337.109375 C 542.878906 337.6875 539.09375 340.628906 534.789062 343.644531 L 526.960938 349.125 L 469.125 445.265625 L 466.398438 456.070312 C 463.796875 466.386719 460.304688 477.351562 457.820312 483 C 456.9375 485.011719 454.261719 487.300781 446.394531 492.785156 L 436.125 499.945312 L 420.75 525.570312 C 412.292969 539.660156 405.207031 551.191406 405 551.191406 C 404.792969 551.1875 398.066406 540.246094 390.046875 526.875 L 375.46875 502.5625 L 366.984375 496.496094 C 362.320312 493.160156 358.015625 489.488281 357.421875 488.335938 C 356.316406 486.203125 352.214844 473.222656 349.199219 462.320312 C 347.746094 457.078125 344.921875 451.941406 328.144531 424.070312 C 317.484375 406.363281 303.355469 382.882812 296.746094 371.894531 L 284.722656 351.910156 L 278.863281 347.957031 C 270.761719 342.484375 270.847656 342.617188 271.523438 336.375 L 272.09375 331.128906 L 267.109375 322.703125 C 264.113281 317.636719 261.75 314.414062 261.1875 314.617188 C 260.605469 314.824219 260.25 314.269531 260.25 313.144531 C 260.25 311.339844 224.59375 251.253906 222.140625 248.921875 C 221.445312 248.261719 190.332031 229.382812 153 206.972656 C 115.667969 184.558594 84.367188 165.738281 83.4375 165.148438 C 81.777344 164.097656 81.75 164.136719 81.75 167.429688 M 687.75 202.890625 C 686.304688 203.96875 684.65625 205.121094 684.082031 205.453125 C 683.265625 205.921875 683.207031 206.546875 683.816406 208.292969 C 684.957031 211.570312 683.832031 212.851562 681.933594 210.4375 C 681.09375 209.371094 680.113281 208.5 679.75 208.5 C 679.386719 208.5 677.832031 209.539062 676.296875 210.804688 C 673.769531 212.886719 673.5 213.460938 673.5 216.75 C 673.5 220.351562 674.800781 222.753906 676.742188 222.746094 C 681.296875 222.722656 688.207031 218.082031 689.949219 213.875 C 690.429688 212.714844 690.71875 209.328125 690.597656 206.351562 L 690.375 200.929688 Z M 141.742188 216.734375 C 142.769531 218.652344 146.820312 221.242188 148.800781 221.246094 C 149.839844 221.25 149.433594 220.675781 147.277344 219.113281 C 145.65625 217.941406 143.554688 216.5625 142.605469 216.058594 C 140.988281 215.191406 140.9375 215.230469 141.742188 216.734375 M 656.921875 224.4375 C 654.0625 226.617188 653.503906 227.527344 652.585938 231.507812 C 651.582031 235.84375 651.613281 236.246094 653.195312 239.507812 C 654.109375 241.398438 656.960938 245.210938 659.535156 247.980469 L 664.214844 253.019531 L 667.632812 250.667969 L 671.046875 248.316406 L 669.015625 241.347656 C 667.117188 234.816406 664.828125 229.542969 661.582031 224.203125 L 660.203125 221.933594 Z M 162.316406 233.363281 C 157.695312 242.300781 154.175781 261.640625 156.976562 262.714844 C 157.851562 263.050781 158.871094 261.867188 160.917969 258.144531 C 162.433594 255.386719 165.816406 250.851562 168.4375 248.078125 C 173.191406 243.03125 175.960938 239.417969 175.414062 238.960938 C 173.789062 237.597656 164.3125 231 163.976562 231 C 163.734375 231 162.988281 232.0625 162.316406 233.363281 M 624.375 247.117188 C 613.730469 254.554688 613.136719 255.097656 613.359375 257.238281 C 613.488281 258.484375 613.238281 259.5 612.796875 259.5 C 611.421875 259.5 611.929688 262.097656 613.5 263.074219 C 614.324219 263.589844 615 264.675781 615 265.488281 C 615 266.300781 615.890625 267.546875 616.976562 268.261719 C 618.0625 268.972656 619.417969 270.667969 619.988281 272.027344 C 620.9375 274.304688 621.289062 274.5 624.382812 274.5 C 626.285156 274.5 627.75 274.851562 627.75 275.304688 C 627.75 275.75 626.820312 276.050781 625.6875 275.976562 C 622.300781 275.753906 622.046875 275.871094 618.835938 279.179688 C 616.734375 281.34375 615.75 283.019531 615.75 284.429688 C 615.75 285.570312 615.925781 286.5 616.140625 286.5 C 616.488281 286.5 659.050781 256.871094 660 255.972656 C 660.207031 255.777344 658.6875 254.222656 656.625 252.515625 C 654.5625 250.8125 651.585938 248.058594 650.007812 246.398438 C 647.621094 243.886719 647.03125 243.578125 646.484375 244.558594 C 646.121094 245.207031 644.300781 247.804688 642.4375 250.332031 C 640.578125 252.863281 637.855469 257.308594 636.390625 260.214844 C 633.972656 265.023438 632.582031 266.332031 631.28125 265.03125 C 631.019531 264.769531 631.339844 263.335938 631.984375 261.84375 C 633.816406 257.613281 635.097656 252.355469 635.628906 246.886719 C 635.898438 244.128906 636.285156 241.285156 636.484375 240.5625 C 636.6875 239.839844 636.574219 239.253906 636.238281 239.253906 C 635.902344 239.257812 630.5625 242.796875 624.375 247.117188 M 178 246.652344 C 176.695312 248.171875 173.46875 250.90625 170.828125 252.726562 C 167.570312 254.972656 165.121094 257.445312 163.1875 260.4375 C 161.625 262.863281 160.539062 265.039062 160.777344 265.277344 C 161.015625 265.515625 170.078125 271.90625 180.917969 279.480469 L 200.625 293.253906 L 201.132812 286.769531 C 201.410156 283.207031 201.832031 279.53125 202.0625 278.605469 C 202.386719 277.316406 202.089844 276.796875 200.804688 276.394531 L 199.125 275.867188 L 201 275.339844 C 202.710938 274.859375 202.953125 274.253906 203.757812 268.46875 C 205.078125 258.9375 205.277344 259.53125 199.484375 255.5625 C 196.625 253.601562 193.984375 252 193.617188 252 C 192.824219 252 194.304688 258.703125 195.960938 262.632812 C 196.871094 264.785156 196.917969 265.464844 196.183594 265.75 C 194.625 266.347656 193.777344 265.371094 191.09375 259.875 C 188.589844 254.753906 181.808594 244.242188 180.851562 244.007812 C 180.589844 243.941406 179.308594 245.132812 178 246.652344 M 582.132812 276.550781 C 576.21875 280.636719 572.613281 283.644531 572.117188 284.90625 C 571.6875 285.988281 571.203125 289.40625 571.035156 292.5 C 570.867188 295.59375 570.40625 300.65625 570.011719 303.75 C 568.84375 312.941406 568.351562 319.5 568.832031 319.5 C 569.761719 319.5 598.703125 298.847656 599.050781 297.933594 C 599.683594 296.292969 593.316406 272.316406 591.808594 270.644531 C 591.570312 270.382812 587.214844 273.039062 582.132812 276.550781 M 613.421875 270.394531 C 613.269531 271.789062 613.5625 275.636719 613.980469 277.769531 C 614.351562 279.652344 614.539062 279.78125 615.5 278.820312 C 617.1875 277.132812 616.984375 273.152344 615.117188 271.28125 C 614.226562 270.394531 613.464844 269.996094 613.421875 270.394531 M 222.75 274.125 C 222.75 274.75 223.417969 275.25 224.25 275.25 C 225.074219 275.25 225.75 275.585938 225.75 276 C 225.75 276.414062 224.917969 276.75 223.902344 276.75 C 221.664062 276.75 221.210938 277.582031 219.007812 285.75 C 218.058594 289.257812 216.660156 294.003906 215.894531 296.300781 C 215.128906 298.597656 214.5 301.023438 214.5 301.691406 C 214.5 302.886719 246.523438 325.976562 247.21875 325.28125 C 247.589844 324.910156 246.292969 299.285156 245.542969 292.082031 C 245.011719 286.996094 246.378906 288.335938 230.433594 277.3125 C 223.851562 272.761719 222.75 272.304688 222.75 274.125 M 666.949219 306.984375 C 663.902344 309.175781 663.792969 309.390625 664.242188 312.320312 L 664.710938 315.375 L 662.867188 313.6875 C 660.558594 311.570312 660.316406 311.582031 657.257812 313.914062 C 655.035156 315.609375 654.75 316.230469 654.75 319.386719 C 654.75 321.347656 655.15625 323.355469 655.648438 323.851562 C 658.066406 326.265625 665.6875 323.417969 668.675781 318.984375 C 670.296875 316.578125 671.792969 306.167969 670.660156 305.175781 C 670.363281 304.917969 668.695312 305.730469 666.949219 306.984375 M 554.25 314.25 C 554.25 315.898438 554.585938 317.25 555 317.25 C 555.414062 317.25 555.75 315.898438 555.75 314.25 C 555.75 312.601562 555.414062 311.25 555 311.25 C 554.585938 311.25 554.25 312.601562 554.25 314.25 M 160.390625 319.296875 C 161.363281 321.113281 166.347656 324.402344 167.054688 323.691406 C 167.527344 323.222656 166.160156 322.058594 161.761719 319.175781 L 159.550781 317.726562 Z M 361.132812 333.546875 C 380.871094 366.773438 397.546875 393.589844 399.230469 394.820312 C 401.78125 396.679688 409.664062 396.914062 411.375 395.179688 C 411.949219 394.601562 420.234375 381.132812 429.785156 365.25 C 439.339844 349.367188 447.832031 335.261719 448.660156 333.90625 C 449.976562 331.738281 447.386719 333.109375 427.582031 345.050781 L 405 358.667969 L 382.449219 345.066406 C 364.695312 334.363281 360.160156 331.914062 361.132812 333.546875 M 252 384.8125 C 252 386.640625 253.753906 386.382812 254.117188 384.5 C 254.261719 383.761719 253.878906 383.25 253.179688 383.25 C 252.484375 383.25 252 383.890625 252 384.8125 M 559.5 386.066406 C 559.5 386.890625 560.007812 387.984375 560.625 388.5 C 561.5625 389.277344 561.75 389.183594 561.75 387.933594 C 561.75 387.109375 561.242188 386.015625 560.625 385.5 C 559.6875 384.722656 559.5 384.816406 559.5 386.066406 M 253.125 391.5 C 252.871094 391.914062 253.019531 392.25 253.457031 392.25 C 253.890625 392.25 254.25 391.914062 254.25 391.5 C 254.25 391.085938 254.101562 390.75 253.917969 390.75 C 253.738281 390.75 253.378906 391.085938 253.125 391.5 M 559.5 394.082031 C 559.5 394.722656 559.835938 395.25 560.25 395.25 C 560.664062 395.25 561 394.933594 561 394.542969 C 561 394.15625 560.664062 393.628906 560.25 393.375 C 559.835938 393.121094 559.5 393.4375 559.5 394.082031 M 526.125 405.417969 L 519.375 410.253906 L 517.671875 418.316406 C 516.480469 423.996094 515.316406 429.683594 514.175781 435.375 C 513.1875 440.324219 512.125 445.019531 511.8125 445.808594 C 511.371094 446.929688 511.480469 447.105469 512.308594 446.605469 C 515.515625 444.679688 532.457031 432.578125 533.203125 431.679688 C 533.777344 430.988281 534.027344 427.824219 533.917969 422.5 C 533.832031 418.03125 533.835938 411.253906 533.929688 407.4375 C 534.023438 403.621094 533.824219 400.519531 533.488281 400.539062 C 533.148438 400.5625 529.835938 402.757812 526.125 405.417969 M 281.734375 411.210938 C 281.464844 415.425781 281.105469 422.773438 280.9375 427.535156 L 280.632812 436.195312 L 285.988281 439.910156 C 300.652344 450.082031 303.085938 451.664062 303.476562 451.273438 C 304.066406 450.683594 300.710938 434.101562 299.753906 432.882812 C 299.324219 432.335938 298.890625 429.542969 298.785156 426.671875 C 298.679688 423.800781 298.191406 419.640625 297.695312 417.429688 C 296.820312 413.519531 296.625 413.289062 290.335938 408.960938 C 286.78125 406.515625 283.503906 404.296875 283.050781 404.03125 C 282.484375 403.699219 282.070312 405.953125 281.734375 411.210938 M 270.320312 406.832031 C 269.746094 409.105469 270.632812 410.894531 271.582031 409.394531 C 272.464844 408 272.417969 405 271.515625 405 C 271.109375 405 270.570312 405.824219 270.320312 406.832031 M 543.75 409.875 C 543.75 411.320312 544.085938 412.5 544.5 412.5 C 544.914062 412.5 545.25 411.320312 545.25 409.875 C 545.25 408.429688 544.914062 407.25 544.5 407.25 C 544.085938 407.25 543.75 408.429688 543.75 409.875 M 257.394531 418.125 C 257.410156 419.363281 257.578125 419.777344 257.769531 419.046875 C 257.960938 418.320312 257.949219 417.304688 257.742188 416.796875 C 257.535156 416.289062 257.382812 416.886719 257.394531 418.125 M 492.539062 429.011719 C 488.984375 431.492188 485.902344 433.800781 485.691406 434.144531 C 485.152344 435.015625 483.5625 461.109375 483.871094 464.070312 L 484.125 466.511719 L 491.0625 461.566406 C 497.878906 456.703125 498 456.5625 498.042969 453.496094 C 498.066406 451.78125 498.363281 444.636719 498.699219 437.625 C 499.039062 430.613281 499.246094 424.789062 499.160156 424.6875 C 499.074219 424.585938 496.09375 426.53125 492.539062 429.011719 M 316.085938 443.714844 C 316.390625 453.148438 316.773438 461.082031 316.933594 461.34375 C 317.09375 461.605469 320.242188 463.886719 323.929688 466.414062 L 330.632812 471.003906 L 330.300781 458.0625 C 329.796875 438.542969 329.589844 436.507812 328.003906 435.371094 C 327.246094 434.832031 324.128906 432.625 321.078125 430.472656 L 315.535156 426.558594 Z M 263.4375 474.539062 C 262.3125 474.941406 262.175781 477 263.273438 477 C 264.046875 477 265.183594 474.898438 264.65625 474.445312 C 264.5 474.3125 263.953125 474.355469 263.4375 474.539062 M 548.386719 476.804688 C 548.644531 479.027344 551.25 480.28125 551.25 478.179688 C 551.25 477.53125 550.914062 477 550.5 477 C 550.085938 477 549.75 476.492188 549.75 475.875 C 549.75 475.257812 549.390625 474.75 548.949219 474.75 C 548.511719 474.75 548.257812 475.675781 548.386719 476.804688 M 549 484.5 C 549 484.914062 549.359375 485.25 549.792969 485.25 C 550.230469 485.25 550.378906 484.914062 550.125 484.5 C 549.871094 484.085938 549.511719 483.75 549.332031 483.75 C 549.148438 483.75 549 484.085938 549 484.5 M 281.75 494.75 C 280.960938 495.539062 281.167969 499.5 282 499.5 C 282.414062 499.5 282.75 498.320312 282.75 496.875 C 282.75 494.175781 282.613281 493.886719 281.75 494.75 M 533 497 C 532.230469 497.769531 532.40625 500.855469 533.25 501.375 C 533.695312 501.652344 534 500.757812 534 499.167969 C 534 496.429688 533.863281 496.136719 533 497 M 267.867188 505.941406 C 267.386719 508.316406 267.292969 510.65625 267.648438 511.289062 C 268.0625 512.03125 268.453125 510.691406 268.792969 507.363281 C 269.4375 501.058594 268.984375 500.363281 267.867188 505.941406 M 544.6875 511.875 C 544.695312 513.523438 544.851562 514.113281 545.03125 513.179688 C 545.210938 512.246094 545.203125 510.894531 545.015625 510.179688 C 544.828125 509.460938 544.679688 510.226562 544.6875 511.875 M 311.300781 512.4375 C 311.273438 513.984375 311.585938 515.25 312 515.25 C 312.894531 515.25 312.894531 513.210938 312 511.125 C 311.484375 509.921875 311.34375 510.179688 311.300781 512.4375 M 267.058594 516.4375 C 267.09375 517.3125 267.273438 517.488281 267.511719 516.890625 C 267.730469 516.347656 267.703125 515.703125 267.453125 515.453125 C 267.203125 515.203125 267.027344 515.648438 267.058594 516.4375 M 318.175781 555 C 318.175781 556.445312 318.328125 557.035156 318.515625 556.3125 C 318.707031 555.589844 318.707031 554.410156 318.515625 553.6875 C 318.328125 552.964844 318.175781 553.554688 318.175781 555 M 495.175781 556.5 C 495.175781 557.945312 495.328125 558.535156 495.515625 557.8125 C 495.707031 557.089844 495.707031 555.910156 495.515625 555.1875 C 495.328125 554.464844 495.175781 555.054688 495.175781 556.5 M 274.972656 558.1875 C 274.269531 560.816406 274.410156 561.257812 275.625 560.25 C 276.835938 559.242188 277.175781 556.5 276.085938 556.5 C 275.722656 556.5 275.222656 557.257812 274.972656 558.1875 M 537.011719 560.0625 C 537.027344 561.699219 538.261719 563.738281 538.871094 563.128906 C 539.507812 562.492188 538.480469 558.75 537.667969 558.75 C 537.300781 558.75 537.003906 559.339844 537.011719 560.0625 M 389.257812 561.847656 C 389.273438 564.167969 392.949219 570.550781 395.621094 572.898438 C 397.195312 574.277344 399.773438 577.128906 401.355469 579.230469 C 405.605469 584.886719 405.855469 584.910156 410.011719 579.992188 C 412 577.640625 414.703125 574.6875 416.019531 573.421875 C 418.082031 571.449219 422.144531 562.894531 421.386719 562.136719 C 421.242188 561.992188 418.71875 563.488281 415.777344 565.464844 C 410.109375 569.269531 407.089844 570.144531 402.890625 569.195312 C 400.648438 568.691406 398.757812 567.550781 390.703125 561.847656 C 389.472656 560.972656 389.25 560.972656 389.257812 561.847656 M 346.28125 563.25 C 346.5 564.074219 346.804688 564.75 346.960938 564.75 C 347.121094 564.75 347.25 564.074219 347.25 563.25 C 347.25 562.425781 346.945312 561.75 346.570312 561.75 C 346.195312 561.75 346.066406 562.425781 346.28125 563.25 M 466.644531 563.625 C 466.660156 564.863281 466.828125 565.277344 467.019531 564.546875 C 467.210938 563.820312 467.199219 562.804688 466.992188 562.296875 C 466.785156 561.789062 466.632812 562.386719 466.644531 563.625 M 279.074219 587.234375 C 278.082031 591.863281 278.058594 592.5 278.898438 592.5 C 279.558594 592.5 280.792969 584.292969 280.21875 583.71875 C 280.039062 583.539062 279.527344 585.125 279.074219 587.234375 M 532.761719 588.375 C 533.019531 590.023438 533.261719 592.386719 533.292969 593.625 C 533.34375 595.464844 533.460938 595.609375 533.929688 594.410156 C 534.507812 592.933594 533.652344 586.617188 532.769531 585.8125 C 532.503906 585.570312 532.5 586.726562 532.761719 588.375 M 414.335938 590.316406 C 414.058594 590.765625 414.207031 591.507812 414.664062 591.964844 C 415.277344 592.578125 415.5 592.359375 415.5 591.148438 C 415.5 589.339844 415.113281 589.058594 414.335938 590.316406 M 397.5 591.792969 C 397.5 592.644531 397.824219 593.140625 398.21875 592.894531 C 398.613281 592.652344 398.746094 591.957031 398.511719 591.351562 C 397.917969 589.800781 397.5 589.984375 397.5 591.792969 M 534.058594 599.6875 C 534.09375 600.5625 534.273438 600.738281 534.511719 600.140625 C 534.730469 599.597656 534.703125 598.953125 534.453125 598.703125 C 534.203125 598.453125 534.027344 598.898438 534.058594 599.6875 M 441 623.625 C 440.449219 624.65625 440.222656 625.722656 440.5 626 C 440.773438 626.273438 441 626.046875 441 625.496094 C 441 624.945312 441.558594 623.875 442.242188 623.121094 C 442.921875 622.367188 443.148438 621.75 442.742188 621.75 C 442.335938 621.75 441.550781 622.59375 441 623.625 M 369 622.785156 C 369 622.9375 369.515625 623.492188 370.140625 624.015625 C 371.097656 624.808594 371.207031 624.761719 370.8125 623.730469 C 370.410156 622.679688 369 621.941406 369 622.785156 "/></g></svg>