<svg xmlns="http://www.w3.org/2000/svg" xmlns:xlink="http://www.w3.org/1999/xlink" width="1080" zoomAndPan="magnify" viewBox="0 0 810 809.999993" height="1080" preserveAspectRatio="xMidYMid meet" version="1.2"><defs><clipPath id="6f4fe4e5a8"><path d="M 166 220 L 599 220 L 599 654 L 166 654 Z M 166 220 "/></clipPath><clipPath id="dcd221eb92"><path d="M 190.507812 210.863281 L 609.140625 629.496094 L 574.546875 664.089844 L 155.914062 245.457031 Z M 190.507812 210.863281 "/></clipPath><clipPath id="94b195ef61"><path d="M 207.804688 228.160156 L 591.769531 612.125 C 601.320312 621.679688 601.320312 637.167969 591.769531 646.71875 C 582.214844 656.273438 566.730469 656.273438 557.175781 646.71875 L 173.210938 262.753906 C 163.65625 253.199219 163.65625 237.710938 173.210938 228.160156 C 182.761719 218.605469 198.25 218.605469 207.804688 228.160156 Z M 207.804688 228.160156 "/></clipPath></defs><g id="22619128ec"><g style="fill:#000000;fill-opacity:0.302;"><g transform="translate(111.961772, 375.282195)"><path style="stroke:none" d="M 482.328125 249.234375 C 484.378906 251.804688 484.953125 255.078125 484.046875 259.046875 C 483.148438 263.023438 481.171875 266.046875 478.109375 268.109375 C 472.203125 272.972656 465.664062 272.582031 458.5 266.9375 C 424.125 240.269531 396.554688 220.910156 375.796875 208.859375 C 354.503906 221.941406 331.039062 233.863281 305.40625 244.625 C 274.375 257.71875 246.101562 267.273438 220.59375 273.296875 C 195.082031 279.316406 170.398438 279.628906 146.546875 274.234375 C 132.441406 271.421875 119.875 265.78125 108.84375 257.3125 C 97.820312 248.851562 89.617188 237.828125 84.234375 224.234375 C 80.648438 212.960938 80.007812 201.171875 82.3125 188.859375 C 84.613281 176.546875 89.613281 166.289062 97.3125 158.09375 C 110.644531 143.21875 134.492188 134.492188 168.859375 131.921875 C 193.203125 129.617188 216.019531 129.363281 237.3125 131.15625 C 275 133.46875 311.285156 141.035156 346.171875 153.859375 C 378.234375 134.109375 404.515625 112.179688 425.015625 88.078125 C 450.660156 57.828125 466.6875 23.851562 473.09375 -13.84375 C 478.988281 -48.96875 473.21875 -85 455.78125 -121.9375 C 444.757812 -146.289062 428.738281 -168.726562 407.71875 -189.25 C 397.195312 -176.164062 373.863281 -151.289062 337.71875 -114.625 C 332.070312 -108.976562 320.335938 -97.113281 302.515625 -79.03125 C 284.703125 -60.957031 270.921875 -47.046875 261.171875 -37.296875 C 221.171875 2.703125 195.53125 28.34375 184.25 39.625 C 170.65625 52.695312 157.960938 65.390625 146.171875 77.703125 C 127.960938 95.910156 114.628906 107.703125 106.171875 113.078125 C 100.523438 116.160156 94.878906 116.546875 89.234375 114.234375 C 83.597656 111.929688 79.625 107.828125 77.3125 101.921875 C 75.007812 96.023438 75.269531 90.382812 78.09375 85 C 82.96875 76.539062 94.628906 62.304688 113.078125 42.296875 C 124.617188 29.734375 136.546875 17.046875 148.859375 4.234375 C 171.421875 -19.867188 197.0625 -46.539062 225.78125 -75.78125 C 236.8125 -87.3125 263.09375 -113.332031 304.625 -153.84375 C 334.875 -183.59375 357.695312 -204.625 373.09375 -216.9375 C 365.15625 -221.289062 356.695312 -224.625 347.71875 -226.9375 C 337.457031 -229.507812 327.132812 -230.472656 316.75 -229.828125 C 306.363281 -229.179688 299.632812 -225.007812 296.5625 -217.3125 C 294.507812 -212.695312 290.789062 -209.878906 285.40625 -208.859375 C 280.019531 -207.835938 275.789062 -208.863281 272.71875 -211.9375 C 269.644531 -215.007812 268.738281 -219.238281 270 -224.625 C 272.3125 -230.519531 275.265625 -235.648438 278.859375 -240.015625 C 282.453125 -244.378906 286.363281 -247.773438 290.59375 -250.203125 C 294.832031 -252.640625 299.578125 -254.5625 304.828125 -255.96875 C 310.085938 -257.382812 315.40625 -258.085938 320.78125 -258.078125 C 326.164062 -258.078125 331.867188 -257.628906 337.890625 -256.734375 C 343.921875 -255.847656 349.691406 -254.695312 355.203125 -253.28125 C 360.710938 -251.863281 366.414062 -250.257812 372.3125 -248.46875 C 378.207031 -246.675781 383.460938 -244.753906 388.078125 -242.703125 C 392.703125 -240.660156 397.328125 -238.609375 401.953125 -236.546875 C 425.023438 -225.265625 445.28125 -210.78125 462.71875 -193.09375 C 480.15625 -175.40625 494.898438 -155.398438 506.953125 -133.078125 C 515.421875 -117.441406 521.894531 -101.097656 526.375 -84.046875 C 530.851562 -66.992188 533.222656 -49.617188 533.484375 -31.921875 C 533.753906 -14.234375 531.828125 3.328125 527.703125 20.765625 C 516.691406 68.710938 490.671875 112.691406 449.640625 152.703125 C 438.359375 163.984375 425.796875 174.753906 411.953125 185.015625 C 440.671875 202.960938 464.128906 224.367188 482.328125 249.234375 Z M 198.09375 213.46875 C 228.851562 208.851562 263.597656 196.929688 302.328125 177.703125 C 277.960938 170.253906 253.859375 166.148438 230.015625 165.390625 C 208.472656 164.367188 189.628906 165.265625 173.484375 168.078125 C 173.484375 168.078125 171.625 168.398438 167.90625 169.046875 C 164.1875 169.691406 161.492188 170.207031 159.828125 170.59375 C 158.160156 170.976562 155.59375 171.613281 152.125 172.5 C 148.664062 173.394531 145.910156 174.359375 143.859375 175.390625 C 141.804688 176.421875 139.625 177.578125 137.3125 178.859375 C 135 180.140625 133.265625 181.738281 132.109375 183.65625 C 130.960938 185.582031 130.132812 187.570312 129.625 189.625 C 130.394531 193.976562 132.832031 198.207031 136.9375 202.3125 C 141.039062 206.414062 144.625 209.238281 147.6875 210.78125 C 159.5 215.90625 176.300781 216.800781 198.09375 213.46875 Z M 198.09375 213.46875 "/></g></g><g style="fill:#000000;fill-opacity:0.502;"><g transform="translate(111.480908, 375.763035)"><path style="stroke:none" d="M 482.328125 249.234375 C 484.378906 251.804688 484.953125 255.078125 484.046875 259.046875 C 483.148438 263.023438 481.171875 266.046875 478.109375 268.109375 C 472.203125 272.972656 465.664062 272.582031 458.5 266.9375 C 424.125 240.269531 396.554688 220.910156 375.796875 208.859375 C 354.503906 221.941406 331.039062 233.863281 305.40625 244.625 C 274.375 257.71875 246.101562 267.273438 220.59375 273.296875 C 195.082031 279.316406 170.398438 279.628906 146.546875 274.234375 C 132.441406 271.421875 119.875 265.78125 108.84375 257.3125 C 97.820312 248.851562 89.617188 237.828125 84.234375 224.234375 C 80.648438 212.960938 80.007812 201.171875 82.3125 188.859375 C 84.613281 176.546875 89.613281 166.289062 97.3125 158.09375 C 110.644531 143.21875 134.492188 134.492188 168.859375 131.921875 C 193.203125 129.617188 216.019531 129.363281 237.3125 131.15625 C 275 133.46875 311.285156 141.035156 346.171875 153.859375 C 378.234375 134.109375 404.515625 112.179688 425.015625 88.078125 C 450.660156 57.828125 466.6875 23.851562 473.09375 -13.84375 C 478.988281 -48.96875 473.21875 -85 455.78125 -121.9375 C 444.757812 -146.289062 428.738281 -168.726562 407.71875 -189.25 C 397.195312 -176.164062 373.863281 -151.289062 337.71875 -114.625 C 332.070312 -108.976562 320.335938 -97.113281 302.515625 -79.03125 C 284.703125 -60.957031 270.921875 -47.046875 261.171875 -37.296875 C 221.171875 2.703125 195.53125 28.34375 184.25 39.625 C 170.65625 52.695312 157.960938 65.390625 146.171875 77.703125 C 127.960938 95.910156 114.628906 107.703125 106.171875 113.078125 C 100.523438 116.160156 94.878906 116.546875 89.234375 114.234375 C 83.597656 111.929688 79.625 107.828125 77.3125 101.921875 C 75.007812 96.023438 75.269531 90.382812 78.09375 85 C 82.96875 76.539062 94.628906 62.304688 113.078125 42.296875 C 124.617188 29.734375 136.546875 17.046875 148.859375 4.234375 C 171.421875 -19.867188 197.0625 -46.539062 225.78125 -75.78125 C 236.8125 -87.3125 263.09375 -113.332031 304.625 -153.84375 C 334.875 -183.59375 357.695312 -204.625 373.09375 -216.9375 C 365.15625 -221.289062 356.695312 -224.625 347.71875 -226.9375 C 337.457031 -229.507812 327.132812 -230.472656 316.75 -229.828125 C 306.363281 -229.179688 299.632812 -225.007812 296.5625 -217.3125 C 294.507812 -212.695312 290.789062 -209.878906 285.40625 -208.859375 C 280.019531 -207.835938 275.789062 -208.863281 272.71875 -211.9375 C 269.644531 -215.007812 268.738281 -219.238281 270 -224.625 C 272.3125 -230.519531 275.265625 -235.648438 278.859375 -240.015625 C 282.453125 -244.378906 286.363281 -247.773438 290.59375 -250.203125 C 294.832031 -252.640625 299.578125 -254.5625 304.828125 -255.96875 C 310.085938 -257.382812 315.40625 -258.085938 320.78125 -258.078125 C 326.164062 -258.078125 331.867188 -257.628906 337.890625 -256.734375 C 343.921875 -255.847656 349.691406 -254.695312 355.203125 -253.28125 C 360.710938 -251.863281 366.414062 -250.257812 372.3125 -248.46875 C 378.207031 -246.675781 383.460938 -244.753906 388.078125 -242.703125 C 392.703125 -240.660156 397.328125 -238.609375 401.953125 -236.546875 C 425.023438 -225.265625 445.28125 -210.78125 462.71875 -193.09375 C 480.15625 -175.40625 494.898438 -155.398438 506.953125 -133.078125 C 515.421875 -117.441406 521.894531 -101.097656 526.375 -84.046875 C 530.851562 -66.992188 533.222656 -49.617188 533.484375 -31.921875 C 533.753906 -14.234375 531.828125 3.328125 527.703125 20.765625 C 516.691406 68.710938 490.671875 112.691406 449.640625 152.703125 C 438.359375 163.984375 425.796875 174.753906 411.953125 185.015625 C 440.671875 202.960938 464.128906 224.367188 482.328125 249.234375 Z M 198.09375 213.46875 C 228.851562 208.851562 263.597656 196.929688 302.328125 177.703125 C 277.960938 170.253906 253.859375 166.148438 230.015625 165.390625 C 208.472656 164.367188 189.628906 165.265625 173.484375 168.078125 C 173.484375 168.078125 171.625 168.398438 167.90625 169.046875 C 164.1875 169.691406 161.492188 170.207031 159.828125 170.59375 C 158.160156 170.976562 155.59375 171.613281 152.125 172.5 C 148.664062 173.394531 145.910156 174.359375 143.859375 175.390625 C 141.804688 176.421875 139.625 177.578125 137.3125 178.859375 C 135 180.140625 133.265625 181.738281 132.109375 183.65625 C 130.960938 185.582031 130.132812 187.570312 129.625 189.625 C 130.394531 193.976562 132.832031 198.207031 136.9375 202.3125 C 141.039062 206.414062 144.625 209.238281 147.6875 210.78125 C 159.5 215.90625 176.300781 216.800781 198.09375 213.46875 Z M 198.09375 213.46875 "/></g></g><g style="fill:#ffffff;fill-opacity:1;"><g transform="translate(111.000068, 376.243878)"><path style="stroke:none" d="M 482.328125 249.234375 C 484.378906 251.804688 484.953125 255.078125 484.046875 259.046875 C 483.148438 263.023438 481.171875 266.046875 478.109375 268.109375 C 472.203125 272.972656 465.664062 272.582031 458.5 266.9375 C 424.125 240.269531 396.554688 220.910156 375.796875 208.859375 C 354.503906 221.941406 331.039062 233.863281 305.40625 244.625 C 274.375 257.71875 246.101562 267.273438 220.59375 273.296875 C 195.082031 279.316406 170.398438 279.628906 146.546875 274.234375 C 132.441406 271.421875 119.875 265.78125 108.84375 257.3125 C 97.820312 248.851562 89.617188 237.828125 84.234375 224.234375 C 80.648438 212.960938 80.007812 201.171875 82.3125 188.859375 C 84.613281 176.546875 89.613281 166.289062 97.3125 158.09375 C 110.644531 143.21875 134.492188 134.492188 168.859375 131.921875 C 193.203125 129.617188 216.019531 129.363281 237.3125 131.15625 C 275 133.46875 311.285156 141.035156 346.171875 153.859375 C 378.234375 134.109375 404.515625 112.179688 425.015625 88.078125 C 450.660156 57.828125 466.6875 23.851562 473.09375 -13.84375 C 478.988281 -48.96875 473.21875 -85 455.78125 -121.9375 C 444.757812 -146.289062 428.738281 -168.726562 407.71875 -189.25 C 397.195312 -176.164062 373.863281 -151.289062 337.71875 -114.625 C 332.070312 -108.976562 320.335938 -97.113281 302.515625 -79.03125 C 284.703125 -60.957031 270.921875 -47.046875 261.171875 -37.296875 C 221.171875 2.703125 195.53125 28.34375 184.25 39.625 C 170.65625 52.695312 157.960938 65.390625 146.171875 77.703125 C 127.960938 95.910156 114.628906 107.703125 106.171875 113.078125 C 100.523438 116.160156 94.878906 116.546875 89.234375 114.234375 C 83.597656 111.929688 79.625 107.828125 77.3125 101.921875 C 75.007812 96.023438 75.269531 90.382812 78.09375 85 C 82.96875 76.539062 94.628906 62.304688 113.078125 42.296875 C 124.617188 29.734375 136.546875 17.046875 148.859375 4.234375 C 171.421875 -19.867188 197.0625 -46.539062 225.78125 -75.78125 C 236.8125 -87.3125 263.09375 -113.332031 304.625 -153.84375 C 334.875 -183.59375 357.695312 -204.625 373.09375 -216.9375 C 365.15625 -221.289062 356.695312 -224.625 347.71875 -226.9375 C 337.457031 -229.507812 327.132812 -230.472656 316.75 -229.828125 C 306.363281 -229.179688 299.632812 -225.007812 296.5625 -217.3125 C 294.507812 -212.695312 290.789062 -209.878906 285.40625 -208.859375 C 280.019531 -207.835938 275.789062 -208.863281 272.71875 -211.9375 C 269.644531 -215.007812 268.738281 -219.238281 270 -224.625 C 272.3125 -230.519531 275.265625 -235.648438 278.859375 -240.015625 C 282.453125 -244.378906 286.363281 -247.773438 290.59375 -250.203125 C 294.832031 -252.640625 299.578125 -254.5625 304.828125 -255.96875 C 310.085938 -257.382812 315.40625 -258.085938 320.78125 -258.078125 C 326.164062 -258.078125 331.867188 -257.628906 337.890625 -256.734375 C 343.921875 -255.847656 349.691406 -254.695312 355.203125 -253.28125 C 360.710938 -251.863281 366.414062 -250.257812 372.3125 -248.46875 C 378.207031 -246.675781 383.460938 -244.753906 388.078125 -242.703125 C 392.703125 -240.660156 397.328125 -238.609375 401.953125 -236.546875 C 425.023438 -225.265625 445.28125 -210.78125 462.71875 -193.09375 C 480.15625 -175.40625 494.898438 -155.398438 506.953125 -133.078125 C 515.421875 -117.441406 521.894531 -101.097656 526.375 -84.046875 C 530.851562 -66.992188 533.222656 -49.617188 533.484375 -31.921875 C 533.753906 -14.234375 531.828125 3.328125 527.703125 20.765625 C 516.691406 68.710938 490.671875 112.691406 449.640625 152.703125 C 438.359375 163.984375 425.796875 174.753906 411.953125 185.015625 C 440.671875 202.960938 464.128906 224.367188 482.328125 249.234375 Z M 198.09375 213.46875 C 228.851562 208.851562 263.597656 196.929688 302.328125 177.703125 C 277.960938 170.253906 253.859375 166.148438 230.015625 165.390625 C 208.472656 164.367188 189.628906 165.265625 173.484375 168.078125 C 173.484375 168.078125 171.625 168.398438 167.90625 169.046875 C 164.1875 169.691406 161.492188 170.207031 159.828125 170.59375 C 158.160156 170.976562 155.59375 171.613281 152.125 172.5 C 148.664062 173.394531 145.910156 174.359375 143.859375 175.390625 C 141.804688 176.421875 139.625 177.578125 137.3125 178.859375 C 135 180.140625 133.265625 181.738281 132.109375 183.65625 C 130.960938 185.582031 130.132812 187.570312 129.625 189.625 C 130.394531 193.976562 132.832031 198.207031 136.9375 202.3125 C 141.039062 206.414062 144.625 209.238281 147.6875 210.78125 C 159.5 215.90625 176.300781 216.800781 198.09375 213.46875 Z M 198.09375 213.46875 "/></g></g><g clip-rule="nonzero" clip-path="url(#6f4fe4e5a8)"><g clip-rule="nonzero" clip-path="url(#dcd221eb92)"><g clip-rule="nonzero" clip-path="url(#94b195ef61)"><path style=" stroke:none;fill-rule:nonzero;fill:#ffffff;fill-opacity:1;" d="M 190.507812 210.863281 L 609.007812 629.363281 L 574.414062 663.957031 L 155.914062 245.457031 Z M 190.507812 210.863281 "/></g></g></g></g></svg>